<?xml version="1.0" encoding="UTF-8" standalone="no"?>
<!-- Created with Inkscape (http://www.inkscape.org/) -->

<svg
   width="200"
   height="150"
   viewBox="0 0 52.916664 39.687501"
   version="1.1"
   id="svg5"
   xml:space="preserve"
   inkscape:export-filename="careerstep_350x350.png"
   inkscape:export-xdpi="96"
   inkscape:export-ydpi="96"
   inkscape:version="1.2.1 (9c6d41e4, 2022-07-14)"
   sodipodi:docname="CareerStep_just_monitor.svg"
   xmlns:inkscape="http://www.inkscape.org/namespaces/inkscape"
   xmlns:sodipodi="http://sodipodi.sourceforge.net/DTD/sodipodi-0.dtd"
   xmlns="http://www.w3.org/2000/svg"
   xmlns:svg="http://www.w3.org/2000/svg"><sodipodi:namedview
     id="namedview7"
     pagecolor="#505050"
     bordercolor="#eeeeee"
     borderopacity="1"
     inkscape:showpageshadow="0"
     inkscape:pageopacity="0"
     inkscape:pagecheckerboard="true"
     inkscape:deskcolor="#505050"
     inkscape:document-units="mm"
     showgrid="false"
     inkscape:zoom="1"
     inkscape:cx="279"
     inkscape:cy="277"
     inkscape:window-width="2051"
     inkscape:window-height="1328"
     inkscape:window-x="1389"
     inkscape:window-y="25"
     inkscape:window-maximized="0"
     inkscape:current-layer="layer2" /><defs
     id="defs2" /><g
     inkscape:label="Background"
     inkscape:groupmode="layer"
     id="layer1"
     transform="matrix(0.50000001,0,0,0.50000001,2.6081508,5.7887536)" /><g
     inkscape:groupmode="layer"
     id="layer2"
     inkscape:label="Logo"
     transform="matrix(0.50000001,0,0,0.50000001,2.6081508,5.7887536)"><g
       id="g3212"
       transform="matrix(0.95,0,0,0.95,-15.488354,-35.899093)"><g
         id="g1943"
         inkscape:label="Monitor"
         transform="matrix(1.0638298,0,0,1.0277778,-4.1290126,-5.3197657)"><rect
           style="opacity:0.97;fill:#189b96;fill-opacity:1;stroke-width:0.392112;stroke-linecap:round;stroke-linejoin:round;stroke-dasharray:0.392112, 0.392112;stroke-dashoffset:0.470535"
           id="rect1482"
           width="99.48333"
           height="61.118748"
           x="16.139584"
           y="33.337498"
           rx="5"
           inkscape:label="Boue Square" /><rect
           style="opacity:0.97;fill:#ffffff;fill-opacity:1;stroke-width:0.358985;stroke-linecap:round;stroke-linejoin:round;stroke-dasharray:0.358985, 0.358985;stroke-dashoffset:0.430782"
           id="rect1674"
           width="92.604164"
           height="55.033333"
           x="19.579163"
           y="35.983334"
           rx="4.6542554"
           inkscape:label="White Square" /><rect
           style="opacity:0.97;fill:#189b96;fill-opacity:1;stroke-width:0.354401;stroke-linecap:round;stroke-linejoin:round;stroke-dasharray:0.354401, 0.354401;stroke-dashoffset:0.425282"
           id="rect1797"
           width="15.345832"
           height="17.19792"
           x="58.208332"
           y="92.339577"
           inkscape:label="Monitor Neck" /><rect
           style="opacity:0.97;fill:#189b96;fill-opacity:1;stroke-width:0.223547;stroke-linecap:round;stroke-linejoin:round;stroke-dasharray:0.223547, 0.223547;stroke-dashoffset:0.268258"
           id="rect1937"
           width="26.458334"
           height="3.96875"
           x="52.652077"
           y="105.56875"
           inkscape:label="Monitor Base" /></g><path
         d="m 54.973286,64.822307 c -7.374941,-1.16351 -12.446112,-6.65849 -12.420911,-13.458947 0.0089,-2.413653 0.380297,-3.931536 1.468246,-6.001402 1.700051,-3.234453 4.578051,-5.585878 8.373068,-6.84107 1.692921,-0.559928 2.458787,-0.636315 6.430228,-0.641379 l 4.508412,-0.0059 4.206509,3.948322 4.206509,3.948307 h -7.872344 c -5.264178,0 -8.199639,0.105707 -8.860238,0.31922 -1.598006,0.516374 -2.554027,1.334607 -3.357776,2.873836 -1.312903,2.514284 -0.52578,5.404169 1.911571,7.018119 l 1.233652,0.816888 8.459879,0.08017 8.459877,0.08002 -4.339249,4.07244 -4.339264,4.07244 -3.345802,-0.03204 c -1.840187,-0.01756 -3.965257,-0.129772 -4.722367,-0.249211 z m 17.036198,-6.554214 7.144272,-6.835432 -6.971418,-6.711371 -6.971405,-6.711374 6.605369,-0.07337 6.605369,-0.07337 7.200715,6.742642 7.200729,6.742628 -7.336127,6.877522 -7.336142,6.877524 h -6.642824 -6.642826 z"
         style="fill:#1c9c97;fill-opacity:1;stroke-width:0.281312"
         id="path2558"
         inkscape:label="Small Logo" /><path
         style="fill:#1c9b96;fill-opacity:1;stroke-width:0.120163"
         d="m 100.82186,76.637413 v -5.878757 h 1.00212 1.00214 v 0.427848 0.427854 l 0.52124,-0.413319 c 0.98096,-0.777857 2.38913,-0.879939 3.64238,-0.264043 0.77049,0.378656 1.29731,0.961199 1.71656,1.898134 0.25479,0.569394 0.30435,0.857743 0.30666,1.783625 0.003,1.007142 -0.0318,1.177519 -0.39031,1.93423 -0.64647,1.364849 -1.88264,2.16649 -3.34083,2.16649 -0.70441,0 -1.67783,-0.373908 -2.12057,-0.814555 l -0.33513,-0.333539 v 2.472391 2.472398 h -1.00214 -1.00212 z m 5.08865,-0.198757 c 0.66305,-0.34604 1.13922,-1.370463 0.99796,-2.147058 -0.19392,-1.066216 -0.92499,-1.694647 -1.97224,-1.695374 -0.72814,-4.62e-4 -1.24147,0.272341 -1.68663,0.896462 -0.34772,0.487502 -0.34974,1.758576 -0.004,2.240241 0.67142,0.934219 1.70308,1.207469 2.66447,0.705729 z m -78.672871,2.102278 c -2.066725,-0.591761 -3.597228,-2.255552 -4.10751,-4.46523 -0.209669,-0.907929 -0.09851,-2.574834 0.232017,-3.479234 0.589443,-1.612847 2.048126,-3.013038 3.673052,-3.525754 0.687871,-0.217047 1.033794,-0.252707 1.988206,-0.204965 1.013745,0.05071 1.261659,0.110437 2.021562,0.487085 0.879047,0.435699 2.104035,1.457068 2.104035,1.754302 0,0.08958 -0.352335,0.418751 -0.782967,0.731474 l -0.782967,0.568582 -0.425476,-0.430599 c -1.380941,-1.39755 -3.712542,-1.320049 -4.997451,0.166115 -0.708258,0.819189 -0.95216,1.605715 -0.886427,2.858521 0.08067,1.537475 0.704263,2.56766 1.914198,3.162286 1.334245,0.655717 2.898433,0.426006 3.853245,-0.565871 l 0.518149,-0.538266 0.851526,0.644325 0.851529,0.644324 -0.466176,0.503983 c -1.445084,1.56229 -3.655348,2.233862 -5.558545,1.688922 z m 9.700504,0.04528 c -0.93425,-0.29641 -1.820122,-1.097676 -2.284652,-2.066462 -0.228287,-0.476097 -0.266548,-0.749427 -0.266395,-1.903154 2.34e-4,-1.506177 0.146741,-1.946437 0.958651,-2.880011 1.181119,-1.358119 3.475583,-1.588587 4.699699,-0.472078 l 0.413165,0.376846 V 71.20001 70.758663 h 1.061073 1.061072 v 3.919171 3.919169 h -1.061072 -1.061073 v -0.51281 -0.512809 l -0.324218,0.315117 c -0.178317,0.173317 -0.509904,0.412966 -0.736855,0.532557 -0.486555,0.256395 -1.879681,0.351074 -2.459395,0.167153 z m 2.548396,-2.213037 c 0.478532,-0.307234 0.727061,-0.681229 0.860244,-1.294535 0.277793,-1.279236 -0.655752,-2.481381 -1.927749,-2.48241 -1.037314,-9.29e-4 -1.673808,0.522765 -1.978918,1.627925 -0.240651,0.871676 0.458207,2.128308 1.337094,2.404259 0.512594,0.160944 1.227328,0.05422 1.709329,-0.255239 z m 14.096851,2.170004 c -2.001605,-0.650163 -3.120372,-2.785616 -2.588751,-4.94129 0.325249,-1.318869 0.953926,-2.107901 2.137893,-2.683207 0.610723,-0.296762 0.852369,-0.343728 1.768453,-0.343728 0.927484,0 1.147078,0.04389 1.74421,0.348465 1.33809,0.682566 2.05389,1.819048 2.172586,3.449448 l 0.06679,0.917337 h -2.905492 c -2.084217,0 -2.905496,0.03921 -2.905496,0.138639 0,0.313296 0.533549,1.003024 0.898417,1.161394 0.861716,0.374024 2.306376,0.129749 2.903948,-0.49102 0.150947,-0.156809 0.247092,-0.100018 0.780327,0.46088 l 0.608165,0.639726 -0.245295,0.273514 c -0.926361,1.032933 -3.005542,1.534405 -4.435753,1.069839 z m 3.090422,-4.936994 c -0.333577,-1.40195 -2.614848,-1.646705 -3.369211,-0.361474 -0.40839,0.695784 -0.402646,0.69828 1.609166,0.69828 h 1.840179 z m 5.959116,4.85871 c -0.600123,-0.203689 -0.894964,-0.400511 -1.42536,-0.951499 -0.829836,-0.862051 -1.109837,-1.616673 -1.10522,-2.978631 0.0056,-1.657497 0.835577,-2.955738 2.353434,-3.681288 0.823649,-0.393711 2.453729,-0.396162 3.271618,-0.005 1.422556,0.680489 2.161874,1.814696 2.284964,3.505407 l 0.06816,0.936239 h -2.905495 c -2.027589,0 -2.905495,0.04055 -2.905495,0.134199 0,0.30177 0.419571,0.83896 0.852859,1.091932 0.385653,0.225165 0.602412,0.262025 1.319605,0.2244 0.714779,-0.03749 0.941025,-0.104676 1.354204,-0.402125 l 0.496049,-0.357109 0.603357,0.626784 0.603358,0.626781 -0.463098,0.434564 c -1.004855,0.942941 -2.938743,1.292239 -4.402947,0.795266 z m 3.291419,-4.717338 c 0,-0.327174 -0.364842,-0.860747 -0.752836,-1.101003 -0.477019,-0.295381 -1.523421,-0.299428 -2.052432,-0.0082 -0.379008,0.208841 -0.848215,0.845032 -0.849097,1.151283 -3.52e-4,0.115915 0.443402,0.153094 1.826964,0.153094 1.594471,0 1.827401,-0.02491 1.827401,-0.195429 z m 13.056605,4.846705 c -0.675566,-0.177234 -1.519756,-0.664719 -1.938147,-1.119213 -0.462136,-0.502 -0.855369,-1.376203 -0.858836,-1.909282 l -0.0027,-0.398042 h 1.062026 1.062029 l 0.177525,0.459278 c 0.212437,0.549594 0.765005,0.969676 1.417129,1.077359 1.494011,0.246695 2.605601,-1.087037 1.767913,-2.121217 -0.311858,-0.385015 -0.645767,-0.534824 -2.487045,-1.115816 -1.786929,-0.563847 -2.634407,-1.337288 -2.863969,-2.613769 -0.117262,-0.652024 3.58e-4,-1.623486 0.258415,-2.134546 0.246401,-0.487965 0.98818,-1.193636 1.575554,-1.498856 1.048528,-0.54485 2.751747,-0.544642 3.868095,4.64e-4 0.731885,0.357381 1.417433,1.174768 1.640894,1.956461 0.320005,1.119391 0.343772,1.091651 -0.935286,1.091651 -0.932929,0 -1.120019,-0.0317 -1.120019,-0.189795 0,-0.728225 -0.858291,-1.3493 -1.724498,-1.247875 -0.666826,0.07807 -1.082241,0.371306 -1.302762,0.919576 -0.159504,0.396571 -0.158943,0.484252 0.0053,0.84226 0.223238,0.486316 0.538129,0.663724 1.90544,1.073539 2.128512,0.637966 3.291514,1.515191 3.578504,2.699192 0.396736,1.636739 -0.284864,3.091223 -1.815424,3.873962 -0.641585,0.328117 -0.917359,0.394141 -1.792979,0.429251 -0.569123,0.02282 -1.233942,-0.01081 -1.47737,-0.07461 z m 14.943919,-0.03934 c -1.319991,-0.454801 -2.110075,-1.199098 -2.545154,-2.39766 -0.334595,-0.921761 -0.282009,-2.497348 0.111554,-3.341889 0.370824,-0.795756 1.096604,-1.532355 1.884746,-1.912827 0.561943,-0.271278 0.833547,-0.322323 1.727824,-0.324724 0.900182,-0.0023 1.160215,0.04545 1.714897,0.315721 1.432338,0.69791 2.118134,1.761891 2.211121,3.430523 l 0.05386,0.966157 h -2.903632 c -1.596997,0 -2.903433,0.04134 -2.903188,0.09185 0.0013,0.237832 0.508562,0.91593 0.853235,1.140234 0.316447,0.205936 0.54178,0.243557 1.277095,0.21321 0.749745,-0.03091 0.974313,-0.09286 1.401175,-0.386309 l 0.508325,-0.349463 0.60307,0.632416 0.603079,0.632416 -0.471593,0.420891 c -0.259369,0.231488 -0.763379,0.53898 -1.120018,0.683314 -0.802888,0.32493 -2.329245,0.419431 -3.006375,0.186128 z m 3.006379,-4.90867 c 0,-0.564237 -0.99737,-1.294035 -1.768465,-1.294035 -0.346377,0 -1.03062,0.248676 -1.262324,0.45877 -0.21192,0.192151 -0.624026,0.895287 -0.624026,1.064713 0,0.03704 0.822332,0.06732 1.827403,0.06732 h 1.827412 z m -52.110452,1.031612 v -3.919172 h 0.996497 0.996498 l 0.03511,0.765465 0.03511,0.765459 0.267595,-0.520377 c 0.147181,-0.286207 0.488155,-0.672 0.757723,-0.857316 0.413584,-0.284327 0.614818,-0.33694 1.288641,-0.33694 0.447455,0 0.858499,0.06231 0.934946,0.141719 0.103306,0.107317 0.08579,0.36484 -0.07212,1.060709 l -0.208555,0.918979 -0.83568,-0.06401 c -0.737783,-0.05651 -0.874045,-0.03236 -1.163185,0.206227 -0.740567,0.611105 -1.028308,1.783199 -1.028308,4.188764 v 1.56967 h -1.002138 -1.002123 z m 24.876249,0 v -3.919172 h 1.061073 1.061071 v 0.748686 0.748688 l 0.383167,-0.595597 c 0.526578,-0.818512 1.211666,-1.178524 2.123902,-1.116103 0.864912,0.05919 0.965376,0.160709 0.802631,0.811116 -0.06957,0.278015 -0.181763,0.726627 -0.249324,0.996932 -0.107602,0.430458 -0.150536,0.476063 -0.345942,0.367421 -0.344913,-0.191757 -1.285335,-0.146677 -1.65353,0.07926 -0.763616,0.468594 -1.060904,1.614497 -1.060904,4.089322 v 1.708615 H 70.75812 69.697047 Z m 16.859265,0.796081 v -3.123098 h -0.707383 -0.707382 v -0.796081 -0.79608 h 0.707382 0.707383 v -1.46969 -1.469689 h 1.061071 1.061074 v 1.469689 1.46969 h 0.766328 0.766328 v 0.79608 0.796081 h -0.766328 -0.766328 v 3.123092 3.123087 h -1.061074 -1.061071 z"
         id="path2585"
         inkscape:label="CareerStep"
         sodipodi:nodetypes="ccccccsssccsscccccccscscccsssssssscssssscccsssscsscccccccccccsssssscssssssscscssssscsssssscscssscscssssscccscccscsscccsccccssssssssssssscssssccsssscsscscscscccssssssssscsccccccssssscsssccccccccccsssssssccccccccccccccccccccccccccccc" /></g></g></svg>
